<svg width="178" height="82" viewBox="0 0 178 82" fill="none" xmlns="http://www.w3.org/2000/svg">
<g filter="url(#filter0_d_108_3)">
<rect x="4" width="170" height="74" rx="10" fill="#AEDEFC"/>
</g>
<g filter="url(#filter1_i_108_3)">
<path d="M59.293 48H54.8633V36.627H43.4199V48H38.9727V22.4062H43.4199V33.0586H54.8633V22.4062H59.293V48ZM75.5176 48C75.3301 47.6367 75.166 47.0449 75.0254 46.2246C73.666 47.6426 72.002 48.3516 70.0332 48.3516C68.123 48.3516 66.5645 47.8066 65.3574 46.7168C64.1504 45.627 63.5469 44.2793 63.5469 42.6738C63.5469 40.6465 64.2969 39.0938 65.7969 38.0156C67.3086 36.9258 69.4648 36.3809 72.2656 36.3809H74.8848V35.1328C74.8848 34.1484 74.6094 33.3633 74.0586 32.7773C73.5078 32.1797 72.6699 31.8809 71.5449 31.8809C70.5723 31.8809 69.7754 32.127 69.1543 32.6191C68.5332 33.0996 68.2227 33.7148 68.2227 34.4648H63.9512C63.9512 33.4219 64.2969 32.4492 64.9883 31.5469C65.6797 30.6328 66.6172 29.918 67.8008 29.4023C68.9961 28.8867 70.3262 28.6289 71.791 28.6289C74.0176 28.6289 75.793 29.1914 77.1172 30.3164C78.4414 31.4297 79.1211 33 79.1562 35.0273V43.6055C79.1562 45.3164 79.3965 46.6816 79.877 47.7012V48H75.5176ZM70.8242 44.9238C71.668 44.9238 72.459 44.7188 73.1973 44.3086C73.9473 43.8984 74.5098 43.3477 74.8848 42.6562V39.0703H72.582C71 39.0703 69.8105 39.3457 69.0137 39.8965C68.2168 40.4473 67.8184 41.2266 67.8184 42.2344C67.8184 43.0547 68.0879 43.7109 68.627 44.2031C69.1777 44.6836 69.9102 44.9238 70.8242 44.9238ZM98.0352 34.1836C98.0352 35.0273 97.7773 35.8066 97.2617 36.5215C96.7578 37.2246 96.043 37.7871 95.1172 38.209C97.2969 38.9707 98.3867 40.4414 98.3867 42.6211C98.3867 44.3672 97.6777 45.7617 96.2598 46.8047C94.8418 47.8359 92.9434 48.3516 90.5645 48.3516C89.1113 48.3516 87.7871 48.1113 86.5918 47.6309C85.3965 47.1387 84.4648 46.4473 83.7969 45.5566C83.1289 44.6543 82.7949 43.5879 82.7949 42.3574H87.0488C87.0488 43.1309 87.3945 43.7812 88.0859 44.3086C88.7773 44.8242 89.6504 45.082 90.7051 45.082C91.748 45.082 92.5742 44.8418 93.1836 44.3613C93.8047 43.8691 94.1152 43.2305 94.1152 42.4453C94.1152 41.5195 93.8457 40.8516 93.3066 40.4414C92.7676 40.0312 91.9355 39.8262 90.8105 39.8262H87.752V36.75H90.916C92.8262 36.7266 93.7812 35.9414 93.7812 34.3945C93.7812 33.6211 93.5059 33.0176 92.9551 32.584C92.4043 32.1504 91.6484 31.9336 90.6875 31.9336C89.75 31.9336 88.959 32.168 88.3145 32.6367C87.6699 33.0938 87.3477 33.6738 87.3477 34.377H83.0938C83.0938 32.7012 83.7969 31.3301 85.2031 30.2637C86.6094 29.1855 88.3965 28.6465 90.5645 28.6465C92.9199 28.6465 94.7539 29.127 96.0664 30.0879C97.3789 31.0488 98.0352 32.4141 98.0352 34.1836ZM113.381 48C113.193 47.6367 113.029 47.0449 112.889 46.2246C111.529 47.6426 109.865 48.3516 107.896 48.3516C105.986 48.3516 104.428 47.8066 103.221 46.7168C102.014 45.627 101.41 44.2793 101.41 42.6738C101.41 40.6465 102.16 39.0938 103.66 38.0156C105.172 36.9258 107.328 36.3809 110.129 36.3809H112.748V35.1328C112.748 34.1484 112.473 33.3633 111.922 32.7773C111.371 32.1797 110.533 31.8809 109.408 31.8809C108.436 31.8809 107.639 32.127 107.018 32.6191C106.396 33.0996 106.086 33.7148 106.086 34.4648H101.814C101.814 33.4219 102.16 32.4492 102.852 31.5469C103.543 30.6328 104.48 29.918 105.664 29.4023C106.859 28.8867 108.189 28.6289 109.654 28.6289C111.881 28.6289 113.656 29.1914 114.98 30.3164C116.305 31.4297 116.984 33 117.02 35.0273V43.6055C117.02 45.3164 117.26 46.6816 117.74 47.7012V48H113.381ZM108.688 44.9238C109.531 44.9238 110.322 44.7188 111.061 44.3086C111.811 43.8984 112.373 43.3477 112.748 42.6562V39.0703H110.445C108.863 39.0703 107.674 39.3457 106.877 39.8965C106.08 40.4473 105.682 41.2266 105.682 42.2344C105.682 43.0547 105.951 43.7109 106.49 44.2031C107.041 44.6836 107.773 44.9238 108.688 44.9238ZM121.572 44.5898C122.756 43.2656 123.547 42.0117 123.945 40.8281C124.355 39.6328 124.602 38.1094 124.684 36.2578L124.93 28.9805H138.131V44.5898H140.768V53.6602H136.514V48H124.314V53.6602H119.99L120.008 44.5898H121.572ZM126.582 44.5898H133.877V32.6543H129.078L128.955 36.293C128.791 39.7852 128 42.5508 126.582 44.5898Z" fill="#FB929E"/>
</g>
<defs>
<filter id="filter0_d_108_3" x="0" y="0" width="178" height="82" filterUnits="userSpaceOnUse" color-interpolation-filters="sRGB">
<feFlood flood-opacity="0" result="BackgroundImageFix"/>
<feColorMatrix in="SourceAlpha" type="matrix" values="0 0 0 0 0 0 0 0 0 0 0 0 0 0 0 0 0 0 127 0" result="hardAlpha"/>
<feOffset dy="4"/>
<feGaussianBlur stdDeviation="2"/>
<feColorMatrix type="matrix" values="0 0 0 0 0 0 0 0 0 0 0 0 0 0 0 0 0 0 0.25 0"/>
<feBlend mode="normal" in2="BackgroundImageFix" result="effect1_dropShadow_108_3"/>
<feBlend mode="normal" in="SourceGraphic" in2="effect1_dropShadow_108_3" result="shape"/>
</filter>
<filter id="filter1_i_108_3" x="38.9727" y="22.4062" width="101.795" height="35.2539" filterUnits="userSpaceOnUse" color-interpolation-filters="sRGB">
<feFlood flood-opacity="0" result="BackgroundImageFix"/>
<feBlend mode="normal" in="SourceGraphic" in2="BackgroundImageFix" result="shape"/>
<feColorMatrix in="SourceAlpha" type="matrix" values="0 0 0 0 0 0 0 0 0 0 0 0 0 0 0 0 0 0 127 0" result="hardAlpha"/>
<feOffset dy="4"/>
<feGaussianBlur stdDeviation="2"/>
<feComposite in2="hardAlpha" operator="arithmetic" k2="-1" k3="1"/>
<feColorMatrix type="matrix" values="0 0 0 0 0 0 0 0 0 0 0 0 0 0 0 0 0 0 0.25 0"/>
<feBlend mode="normal" in2="shape" result="effect1_innerShadow_108_3"/>
</filter>
</defs>
</svg>
