<svg width="105" height="33" viewBox="0 0 105 33" fill="none" xmlns="http://www.w3.org/2000/svg">
<g filter="url(#filter0_d_510_223)">
<rect x="4" width="97" height="25" rx="10" fill="#FFF6F6"/>
</g>
<g filter="url(#filter1_i_510_223)">
<path d="M33.3745 21H30.5444V6.93945H23.3457V21H20.5156V4.64844H33.3745V21ZM36.0361 14.812C36.0361 13.6216 36.272 12.5509 36.7437 11.6001C37.2153 10.6418 37.8779 9.90804 38.7314 9.39893C39.585 8.88232 40.5658 8.62402 41.6738 8.62402C43.3135 8.62402 44.6424 9.15186 45.6606 10.2075C46.6864 11.2632 47.2404 12.6632 47.3228 14.4077L47.334 15.0479C47.334 16.2458 47.1019 17.3164 46.6377 18.2598C46.181 19.2031 45.5221 19.9331 44.6611 20.4497C43.8076 20.9663 42.8193 21.2246 41.6963 21.2246C39.9818 21.2246 38.6079 20.6556 37.5747 19.5176C36.549 18.3721 36.0361 16.8485 36.0361 14.9468V14.812ZM38.7651 15.0479C38.7651 16.2982 39.0234 17.279 39.54 17.9902C40.0566 18.694 40.7754 19.0459 41.6963 19.0459C42.6172 19.0459 43.3322 18.6865 43.8413 17.9678C44.3579 17.249 44.6162 16.1971 44.6162 14.812C44.6162 13.5841 44.3504 12.6108 43.8188 11.8921C43.2948 11.1733 42.5798 10.814 41.6738 10.814C40.7829 10.814 40.0754 11.1696 39.5513 11.8809C39.0272 12.5846 38.7651 13.6403 38.7651 15.0479ZM57.228 8.84863H59.9458V21H57.228V12.8916L52.4663 21H49.7485V8.84863H52.4663V16.957L57.228 8.84863ZM67.8408 19.0459C68.5221 19.0459 69.0874 18.8475 69.5366 18.4507C69.9858 18.0539 70.2254 17.5635 70.2554 16.9795H72.8271C72.7972 17.7357 72.5614 18.4432 72.1196 19.1021C71.6779 19.7534 71.0789 20.27 70.3228 20.6519C69.5666 21.0337 68.7505 21.2246 67.8745 21.2246C66.175 21.2246 64.8273 20.6743 63.8315 19.5737C62.8358 18.4731 62.3379 16.9533 62.3379 15.0142V14.7334C62.3379 12.8841 62.832 11.4054 63.8203 10.2974C64.8086 9.1818 66.1562 8.62402 67.8633 8.62402C69.3083 8.62402 70.4837 9.04704 71.3896 9.89307C72.3031 10.7316 72.7822 11.8359 72.8271 13.2061H70.2554C70.2254 12.5098 69.9858 11.937 69.5366 11.4878C69.0949 11.0386 68.5296 10.814 67.8408 10.814C66.9574 10.814 66.276 11.1359 65.7969 11.7798C65.3177 12.4162 65.0744 13.3857 65.0669 14.6885V15.1265C65.0669 16.4442 65.3027 17.4287 65.7744 18.0801C66.2536 18.724 66.9424 19.0459 67.8408 19.0459ZM79.2061 16.1934H77.8247V21H75.0957V8.84863H77.8247V13.7002H79.0264L82.3843 8.84863H85.7534L81.3623 14.666L86.124 21H82.5752L79.2061 16.1934Z" fill="#FB929E"/>
</g>
<defs>
<filter id="filter0_d_510_223" x="0" y="0" width="105" height="33" filterUnits="userSpaceOnUse" color-interpolation-filters="sRGB">
<feFlood flood-opacity="0" result="BackgroundImageFix"/>
<feColorMatrix in="SourceAlpha" type="matrix" values="0 0 0 0 0 0 0 0 0 0 0 0 0 0 0 0 0 0 127 0" result="hardAlpha"/>
<feOffset dy="4"/>
<feGaussianBlur stdDeviation="2"/>
<feColorMatrix type="matrix" values="0 0 0 0 0 0 0 0 0 0 0 0 0 0 0 0 0 0 0.25 0"/>
<feBlend mode="normal" in2="BackgroundImageFix" result="effect1_dropShadow_510_223"/>
<feBlend mode="normal" in="SourceGraphic" in2="effect1_dropShadow_510_223" result="shape"/>
</filter>
<filter id="filter1_i_510_223" x="20.5156" y="4.64844" width="65.6084" height="20.5762" filterUnits="userSpaceOnUse" color-interpolation-filters="sRGB">
<feFlood flood-opacity="0" result="BackgroundImageFix"/>
<feBlend mode="normal" in="SourceGraphic" in2="BackgroundImageFix" result="shape"/>
<feColorMatrix in="SourceAlpha" type="matrix" values="0 0 0 0 0 0 0 0 0 0 0 0 0 0 0 0 0 0 127 0" result="hardAlpha"/>
<feOffset dy="4"/>
<feGaussianBlur stdDeviation="2"/>
<feComposite in2="hardAlpha" operator="arithmetic" k2="-1" k3="1"/>
<feColorMatrix type="matrix" values="0 0 0 0 0 0 0 0 0 0 0 0 0 0 0 0 0 0 0.25 0"/>
<feBlend mode="normal" in2="shape" result="effect1_innerShadow_510_223"/>
</filter>
</defs>
</svg>
