<svg width="178" height="82" viewBox="0 0 178 82" fill="none" xmlns="http://www.w3.org/2000/svg">
<g filter="url(#filter0_d_108_3)">
<rect x="4" width="170" height="74" rx="10" fill="#AEDEFC"/>
</g>
<g filter="url(#filter1_i_108_3)">
<path d="M29.2695 48V22.4062H38.041C40.9355 22.4062 43.1387 22.9863 44.6504 24.1465C46.1621 25.3066 46.918 27.0352 46.918 29.332C46.918 30.5039 46.6016 31.5586 45.9688 32.4961C45.3359 33.4336 44.4102 34.1602 43.1914 34.6758C44.5742 35.0508 45.6406 35.7598 46.3906 36.8027C47.1523 37.834 47.5332 39.0762 47.5332 40.5293C47.5332 42.9316 46.7598 44.7773 45.2129 46.0664C43.6777 47.3555 41.4746 48 38.6035 48H29.2695ZM33.7168 36.4512V44.4492H38.6562C40.0508 44.4492 41.1406 44.1035 41.9258 43.4121C42.7109 42.7207 43.1035 41.7598 43.1035 40.5293C43.1035 37.8691 41.7441 36.5098 39.0254 36.4512H33.7168ZM33.7168 33.1816H38.0762C39.459 33.1816 40.5371 32.8711 41.3105 32.25C42.0957 31.6172 42.4883 30.7266 42.4883 29.5781C42.4883 28.3125 42.125 27.3984 41.3984 26.8359C40.6836 26.2734 39.5645 25.9922 38.041 25.9922H33.7168V33.1816ZM67.6953 48H63.4238V32.4258H56.0059V48H51.7344V28.9805H67.6953V48ZM80.6152 48.3516C77.9082 48.3516 75.7109 47.502 74.0234 45.8027C72.3477 44.0918 71.5098 41.8184 71.5098 38.9824V38.4551C71.5098 36.5566 71.873 34.8633 72.5996 33.375C73.3379 31.875 74.3691 30.709 75.6934 29.877C77.0176 29.0449 78.4941 28.6289 80.123 28.6289C82.7129 28.6289 84.7109 29.4551 86.1172 31.1074C87.5352 32.7598 88.2441 35.0977 88.2441 38.1211V39.8438H75.8164C75.9453 41.4141 76.4668 42.6562 77.3809 43.5703C78.3066 44.4844 79.4668 44.9414 80.8613 44.9414C82.8184 44.9414 84.4121 44.1504 85.6426 42.5684L87.9453 44.7656C87.1836 45.9023 86.1641 46.7871 84.8867 47.4199C83.6211 48.041 82.1973 48.3516 80.6152 48.3516ZM80.1055 32.0566C78.9336 32.0566 77.9844 32.4668 77.2578 33.2871C76.543 34.1074 76.0859 35.25 75.8867 36.7148H84.0254V36.3984C83.9316 34.9688 83.5508 33.8906 82.8828 33.1641C82.2148 32.4258 81.2891 32.0566 80.1055 32.0566ZM108.23 38.6836C108.23 41.625 107.562 43.9746 106.227 45.7324C104.891 47.4785 103.098 48.3516 100.848 48.3516C98.7617 48.3516 97.0918 47.666 95.8379 46.2949V55.3125H91.5664V28.9805H95.5039L95.6797 30.9141C96.9336 29.3906 98.6387 28.6289 100.795 28.6289C103.115 28.6289 104.932 29.4961 106.244 31.2305C107.568 32.9531 108.23 35.3496 108.23 38.4199V38.6836ZM103.977 38.3145C103.977 36.416 103.596 34.9102 102.834 33.7969C102.084 32.6836 101.006 32.127 99.5996 32.127C97.8535 32.127 96.5996 32.8477 95.8379 34.2891V42.7266C96.6113 44.2031 97.877 44.9414 99.6348 44.9414C100.994 44.9414 102.055 44.3965 102.816 43.3066C103.59 42.2051 103.977 40.541 103.977 38.3145ZM120.236 48.3516C117.529 48.3516 115.332 47.502 113.645 45.8027C111.969 44.0918 111.131 41.8184 111.131 38.9824V38.4551C111.131 36.5566 111.494 34.8633 112.221 33.375C112.959 31.875 113.99 30.709 115.314 29.877C116.639 29.0449 118.115 28.6289 119.744 28.6289C122.334 28.6289 124.332 29.4551 125.738 31.1074C127.156 32.7598 127.865 35.0977 127.865 38.1211V39.8438H115.438C115.566 41.4141 116.088 42.6562 117.002 43.5703C117.928 44.4844 119.088 44.9414 120.482 44.9414C122.439 44.9414 124.033 44.1504 125.264 42.5684L127.566 44.7656C126.805 45.9023 125.785 46.7871 124.508 47.4199C123.242 48.041 121.818 48.3516 120.236 48.3516ZM119.727 32.0566C118.555 32.0566 117.605 32.4668 116.879 33.2871C116.164 34.1074 115.707 35.25 115.508 36.7148H123.646V36.3984C123.553 34.9688 123.172 33.8906 122.504 33.1641C121.836 32.4258 120.91 32.0566 119.727 32.0566ZM131.275 44.5898C132.459 43.2656 133.25 42.0117 133.648 40.8281C134.059 39.6328 134.305 38.1094 134.387 36.2578L134.633 28.9805H147.834V44.5898H150.471V53.6602H146.217V48H134.018V53.6602H129.693L129.711 44.5898H131.275ZM136.285 44.5898H143.58V32.6543H138.781L138.658 36.293C138.494 39.7852 137.703 42.5508 136.285 44.5898Z" fill="#FB929E"/>
</g>
<defs>
<filter id="filter0_d_108_3" x="0" y="0" width="178" height="82" filterUnits="userSpaceOnUse" color-interpolation-filters="sRGB">
<feFlood flood-opacity="0" result="BackgroundImageFix"/>
<feColorMatrix in="SourceAlpha" type="matrix" values="0 0 0 0 0 0 0 0 0 0 0 0 0 0 0 0 0 0 127 0" result="hardAlpha"/>
<feOffset dy="4"/>
<feGaussianBlur stdDeviation="2"/>
<feColorMatrix type="matrix" values="0 0 0 0 0 0 0 0 0 0 0 0 0 0 0 0 0 0 0.25 0"/>
<feBlend mode="normal" in2="BackgroundImageFix" result="effect1_dropShadow_108_3"/>
<feBlend mode="normal" in="SourceGraphic" in2="effect1_dropShadow_108_3" result="shape"/>
</filter>
<filter id="filter1_i_108_3" x="29.2695" y="22.4062" width="121.201" height="36.9062" filterUnits="userSpaceOnUse" color-interpolation-filters="sRGB">
<feFlood flood-opacity="0" result="BackgroundImageFix"/>
<feBlend mode="normal" in="SourceGraphic" in2="BackgroundImageFix" result="shape"/>
<feColorMatrix in="SourceAlpha" type="matrix" values="0 0 0 0 0 0 0 0 0 0 0 0 0 0 0 0 0 0 127 0" result="hardAlpha"/>
<feOffset dy="4"/>
<feGaussianBlur stdDeviation="2"/>
<feComposite in2="hardAlpha" operator="arithmetic" k2="-1" k3="1"/>
<feColorMatrix type="matrix" values="0 0 0 0 0 0 0 0 0 0 0 0 0 0 0 0 0 0 0.25 0"/>
<feBlend mode="normal" in2="shape" result="effect1_innerShadow_108_3"/>
</filter>
</defs>
</svg>
